<svg width="24" height="25" viewBox="0 0 24 25" fill="none" xmlns="http://www.w3.org/2000/svg">
<path d="M11.9968 8.96804C9.79333 8.96804 7.99514 10.7662 7.99514 12.9697C7.99514 15.1732 9.79333 16.9714 11.9968 16.9714C14.2002 16.9714 15.9984 15.1732 15.9984 12.9697C15.9984 10.7662 14.2002 8.96804 11.9968 8.96804ZM23.9987 12.9697C23.9987 11.3126 24.0137 9.67049 23.9206 8.01639C23.8276 6.09509 23.3893 4.38994 21.9843 2.98498C20.5764 1.57703 18.8743 1.14174 16.953 1.04867C15.2959 0.955609 13.6539 0.970619 11.9998 0.970619C10.3427 0.970619 8.7006 0.955609 7.04653 1.04867C5.12527 1.14174 3.42015 1.58003 2.01522 2.98498C0.607291 4.39293 0.172005 6.09509 0.0789442 8.01639C-0.0141168 9.67351 0.000892894 11.3156 0.000892894 12.9697C0.000892894 14.6238 -0.0141168 16.269 0.0789442 17.9231C0.172005 19.8444 0.610294 21.5495 2.01522 22.9545C3.42314 24.3624 5.12527 24.7977 7.04653 24.8908C8.70362 24.9838 10.3457 24.9688 11.9998 24.9688C13.6569 24.9688 15.299 24.9838 16.953 24.8908C18.8743 24.7977 20.5794 24.3594 21.9843 22.9545C23.3923 21.5465 23.8276 19.8444 23.9206 17.9231C24.0167 16.269 23.9987 14.6268 23.9987 12.9697ZM11.9968 19.1269C8.58955 19.1269 5.83973 16.377 5.83973 12.9697C5.83973 9.56243 8.58955 6.81256 11.9968 6.81256C15.404 6.81256 18.1538 9.56243 18.1538 12.9697C18.1538 16.377 15.404 19.1269 11.9968 19.1269ZM18.406 7.99836C17.6105 7.99836 16.968 7.35593 16.968 6.5604C16.968 5.76485 17.6105 5.12242 18.406 5.12242C19.2015 5.12242 19.844 5.76485 19.844 6.5604C19.8442 6.7493 19.8071 6.9364 19.735 7.11097C19.6628 7.28553 19.5569 7.44415 19.4233 7.57773C19.2897 7.71129 19.1311 7.81721 18.9565 7.88939C18.782 7.96158 18.5949 7.99861 18.406 7.99836Z" fill="white"/>
</svg>
