<svg width="22" height="30" viewBox="0 0 22 30" fill="none" xmlns="http://www.w3.org/2000/svg">
<path fill-rule="evenodd" clip-rule="evenodd" d="M22 10.9725C22 13.0206 21.4375 14.9377 20.4581 16.5783H20.4762L20.3822 16.7036C20.0267 17.2813 19.6192 17.8237 19.166 18.3243L10.9051 29.3327L2.81186 18.2997C1.06356 16.357 0 13.7887 0 10.9725C0 4.91257 4.92487 0 11 0C17.0751 0 22 4.91257 22 10.9725ZM11 15.5442C13.5313 15.5442 15.5833 13.4973 15.5833 10.9723C15.5833 8.44734 13.5313 6.40043 11 6.40043C8.46869 6.40043 6.41667 8.44734 6.41667 10.9723C6.41667 13.4973 8.46869 15.5442 11 15.5442Z" fill="#5A4CB0"/>
</svg>
