<svg width="26" height="26" viewBox="0 0 26 26" fill="none" xmlns="http://www.w3.org/2000/svg">
<path d="M4.60985 2.85422C3.01984 4.12249 2.06582 5.39075 1.11182 7.29314H6.51787C7.15387 4.43955 7.78984 2.22009 9.06184 0.634766C7.47184 0.951831 6.19985 1.90303 4.60985 2.85422Z" fill="#5A4CB0"/>
<path d="M9.06184 25.3664C8.10784 23.7811 7.15387 21.5616 6.51787 18.708H1.11182C2.06582 20.2933 3.01984 21.8787 4.60985 23.1469C6.19985 24.0981 7.47184 25.0493 9.06184 25.3664Z" fill="#5A4CB0"/>
<path d="M21.1497 23.1469C22.7398 21.8787 23.6938 20.2933 24.6478 18.708H19.2418C18.6058 21.5616 17.9698 23.7811 16.6978 25.3664C18.2878 25.0493 19.8777 24.0981 21.1497 23.1469Z" fill="#5A4CB0"/>
<path d="M25.2847 9.19531H19.2427C19.2427 10.4636 19.5606 11.7318 19.5606 13.0001C19.5606 14.2684 19.5607 15.5366 19.2427 16.8049H25.2847C26.2387 14.2684 26.2387 11.7318 25.2847 9.19531Z" fill="#5A4CB0"/>
<path d="M12.8798 0C11.2898 0 9.38174 2.85359 8.42773 7.29251H17.0138C16.3777 2.85359 14.7878 0 12.8798 0Z" fill="#5A4CB0"/>
<path d="M0.477002 16.8049H6.51905C6.20105 14.2684 6.20105 11.7318 6.51905 9.19531H0.477002C-0.159001 11.7318 -0.159001 14.2684 0.477002 16.8049Z" fill="#5A4CB0"/>
<path d="M16.6978 0.634766C17.6518 2.22009 18.6058 4.43955 19.2418 7.29314H24.6478C23.6938 5.70781 22.7398 4.12249 21.1497 2.85422C19.8777 1.90303 18.2878 0.951831 16.6978 0.634766Z" fill="#5A4CB0"/>
<path d="M17.3287 18.708H8.74268C9.69668 23.1469 11.2867 26.0005 13.1947 26.0005C14.7847 26.0005 16.3747 23.1469 17.3287 18.708Z" fill="#5A4CB0"/>
<path d="M8.10938 13.0001C8.10938 14.2684 8.10935 15.5366 8.42735 16.8049H17.6494C17.9674 15.5366 17.9674 14.2684 17.9674 13.0001C17.9674 11.7318 17.9674 10.4636 17.6494 9.19531H8.42735C8.10935 10.4636 8.10938 11.7318 8.10938 13.0001Z" fill="#5A4CB0"/>
</svg>
