<svg width="37" height="45" viewBox="0 0 37 45" fill="none" xmlns="http://www.w3.org/2000/svg">
<path d="M29.3006 45H7.68945C3.81231 45 0.658203 41.8459 0.658203 37.9688V7.03125C0.658203 3.15411 3.81231 0 7.68945 0H29.3009C33.1777 0 36.3322 3.15411 36.3322 7.03125V29.1797C36.3322 30.1506 35.5449 30.9375 34.5744 30.9375C33.6035 30.9375 32.8166 30.1506 32.8166 29.1797V7.03125C32.8166 5.09285 31.2393 3.51562 29.3009 3.51562H7.68945C5.75105 3.51562 4.17383 5.09285 4.17383 7.03125V37.9688C4.17383 39.9072 5.75105 41.4844 7.68945 41.4844H29.3009C31.2393 41.4844 32.8166 39.9072 32.8166 37.9688C32.8166 36.9978 33.6035 36.2109 34.5744 36.2109C35.5449 36.2109 36.3322 36.9978 36.3322 37.9688C36.3318 41.8459 33.1777 45 29.3006 45ZM17.0886 30.8345C18.3469 30.7507 19.5214 30.1389 20.3114 29.1563C20.3316 29.1306 20.3512 29.1048 20.3704 29.0784L29.0699 16.9265C29.635 16.1372 29.453 15.0389 28.6637 14.4741C27.8744 13.909 26.7761 14.0907 26.2114 14.88L17.5469 26.9828C17.3104 27.2571 17.0138 27.3161 16.8548 27.3268C16.6914 27.3381 16.3738 27.3168 16.1015 27.0576L10.4923 21.6716C9.79196 20.999 8.67925 21.0217 8.00703 21.722C7.3348 22.4221 7.35712 23.5351 8.0575 24.2073L13.6722 29.5985C14.5133 30.3992 15.6357 30.8445 16.7906 30.8445C16.8898 30.8445 16.989 30.8414 17.0886 30.8345Z" fill="#FFAD0D"/>
</svg>
