<svg width="439" height="254" viewBox="0 0 439 254" fill="none" xmlns="http://www.w3.org/2000/svg">
<path fill-rule="evenodd" clip-rule="evenodd" d="M439 192.707L193.064 192.708L193.064 254L61.5104 254L-3.05176e-05 254L-3.35781e-05 183.983L61.5104 183.983L61.5104 61.2926L131.658 61.2925L131.658 122.69L307.341 122.69L307.341 3.62726e-05L439 1.52588e-05L438.896 61.2925L439 192.707ZM61.5104 192.708L61.5104 245.377L8.63815 245.377L8.63815 192.708L61.5104 192.708ZM122.916 70.0213L122.916 122.69L70.1485 122.69L70.1485 70.0213L122.916 70.0213ZM193.064 183.983L193.064 131.314L245.832 131.314L245.832 183.983L193.064 183.983ZM307.341 131.314L307.341 183.983L254.575 183.983L254.575 131.314L307.341 131.314ZM368.747 61.2925L368.747 8.62337L315.981 8.62337L315.981 61.2925L368.747 61.2925ZM316.084 183.983L430.258 183.983L430.258 70.0213L315.981 70.0213L316.084 183.983ZM377.49 61.2925L430.258 61.2925L430.258 8.62337L377.49 8.62337L377.49 61.2925Z" fill="url(#paint0_linear)"/>
<defs>
<linearGradient id="paint0_linear" x1="469.085" y1="223.831" x2="450.397" y2="-12.2373" gradientUnits="userSpaceOnUse">
<stop stop-color="#F1BA50"/>
<stop offset="0.227018" stop-color="#FFA900"/>
<stop offset="0.630612" stop-color="#FFA900"/>
<stop offset="0.744571" stop-color="#FCAE14"/>
<stop offset="1" stop-color="#F1BA50"/>
</linearGradient>
</defs>
</svg>
