<svg width="33" height="33" viewBox="0 0 27 21" fill="none" xmlns="http://www.w3.org/2000/svg">
<path d="M9.98849 10.5C9.98849 11.3993 10.3457 12.2617 10.9816 12.8975C11.6174 13.5334 12.4799 13.8906 13.3791 13.8906C14.2784 13.8906 15.1408 13.5334 15.7766 12.8975C16.4125 12.2617 16.7697 11.3993 16.7697 10.5C16.7697 9.60075 16.4125 8.73833 15.7766 8.10247C15.1408 7.4666 14.2784 7.10938 13.3791 7.10938C12.4799 7.10938 11.6174 7.4666 10.9816 8.10247C10.3457 8.73833 9.98849 9.60075 9.98849 10.5ZM26.5238 9.71895C23.6539 3.67334 19.3157 0.630859 13.5002 0.630859C7.68165 0.630859 3.34649 3.67334 0.476573 9.72197C0.361459 9.96572 0.301758 10.2319 0.301758 10.5015C0.301758 10.7711 0.361459 11.0373 0.476573 11.2811C3.34649 17.3267 7.68468 20.3691 13.5002 20.3691C19.3188 20.3691 23.6539 17.3267 26.5238 11.278C26.7569 10.7876 26.7569 10.2185 26.5238 9.71895ZM13.3791 15.8281C10.4365 15.8281 8.05099 13.4426 8.05099 10.5C8.05099 7.55742 10.4365 5.17188 13.3791 5.17188C16.3217 5.17188 18.7072 7.55742 18.7072 10.5C18.7072 13.4426 16.3217 15.8281 13.3791 15.8281Z" fill="#5a4cb0"/>
</svg>
