<svg width="24" height="24" viewBox="0 0 24 24" fill="none" xmlns="http://www.w3.org/2000/svg">
<path d="M21.3334 23.6664H2.66671C1.37804 23.6664 0.333374 22.6217 0.333374 21.333V8.55688C0.37275 7.77388 0.796866 7.06105 1.46621 6.65288L10.7995 1.05288C11.5382 0.609979 12.4607 0.609979 13.1994 1.05288L22.5327 6.65288C23.2341 7.07611 23.6639 7.83453 23.6667 8.65371V21.333C23.6667 22.6217 22.622 23.6664 21.3334 23.6664ZM2.66671 9.51238V21.333H21.3334V9.51238L12 15.7342L2.66671 9.51238ZM12 3.05371L4.20204 7.73204L12 12.9307L19.7969 7.73204L12 3.05371Z" fill="#5A4CB0"/>
</svg>
