<svg width="24" height="24" viewBox="0 0 24 24" fill="none" xmlns="http://www.w3.org/2000/svg">
<path d="M21.3332 23.6667H2.66655C1.37788 23.6667 0.333214 22.6221 0.333214 21.3334V8.55724C0.37259 7.77425 0.796706 7.06142 1.46605 6.65324L10.7994 1.05324C11.538 0.610345 12.4606 0.610345 13.1992 1.05324L22.5325 6.65324C23.2339 7.07648 23.6638 7.83489 23.6665 8.65408V21.3334C23.6665 22.6221 22.6219 23.6667 21.3332 23.6667ZM2.66655 9.51274V21.3334H21.3332V9.51274L11.9999 15.7346L2.66655 9.51274ZM11.9999 3.05408L4.20188 7.73241L11.9999 12.9311L19.7967 7.73241L11.9999 3.05408Z" fill="#FFAD0D"/>
</svg>
