<svg width="26" height="26" viewBox="0 0 26 26" fill="none" xmlns="http://www.w3.org/2000/svg">
<path d="M12.9999 25.5C11.11 25.5054 9.24393 25.0777 7.5449 24.25C6.92309 23.9476 6.32731 23.5943 5.76365 23.1938L5.5924 23.0688C4.04218 21.9245 2.77475 20.4403 1.8874 18.73C0.969574 16.9598 0.493538 14.9939 0.499841 13C0.499841 6.09644 6.09634 0.5 12.9999 0.5C19.9035 0.5 25.5 6.09644 25.5 13C25.5062 14.993 25.0306 16.958 24.1137 18.7275C23.2275 20.4368 21.9619 21.9205 20.4137 23.065C19.8296 23.4925 19.2098 23.8689 18.5612 24.19L18.4612 24.24C16.7611 25.0721 14.8927 25.5032 12.9999 25.5ZM12.9999 19.25C11.1267 19.2463 9.40948 20.2925 8.55365 21.9587C11.3554 23.3465 14.6444 23.3465 17.4462 21.9587V21.9525C16.5893 20.2881 14.8719 19.2443 12.9999 19.25ZM12.9999 16.75C15.7075 16.7535 18.2042 18.2126 19.5362 20.57L19.5549 20.5537L19.5724 20.5387L19.5512 20.5575L19.5387 20.5675C22.6999 17.8364 23.8303 13.4279 22.3732 9.51263C20.9162 5.59735 17.1788 3.00039 13.0012 3.00039C8.82354 3.00039 5.08614 5.59735 3.62909 9.51263C2.17204 13.4279 3.30241 17.8364 6.46365 20.5675C7.79648 18.2113 10.2929 16.7533 12.9999 16.75ZM12.9999 15.5C10.2385 15.5 7.9999 13.2614 7.9999 10.5C7.9999 7.73858 10.2385 5.5 12.9999 5.5C15.7613 5.5 17.9999 7.73858 17.9999 10.5C17.9999 11.8261 17.4731 13.0979 16.5354 14.0355C15.5978 14.9732 14.326 15.5 12.9999 15.5ZM12.9999 8C11.6192 8 10.4999 9.11929 10.4999 10.5C10.4999 11.8807 11.6192 13 12.9999 13C14.3806 13 15.4999 11.8807 15.4999 10.5C15.4999 9.11929 14.3806 8 12.9999 8Z" fill="#FFAD0D"/>
</svg>
