<svg width="26" height="26" viewBox="0 0 26 26" fill="none" xmlns="http://www.w3.org/2000/svg">
<path d="M13.0001 25.5C11.1102 25.5054 9.24415 25.0777 7.54513 24.25C6.92331 23.9476 6.32753 23.5943 5.76387 23.1938L5.59262 23.0688C4.0424 21.9245 2.77497 20.4403 1.88762 18.73C0.969795 16.9598 0.493759 14.9939 0.500062 13C0.500062 6.09644 6.09657 0.5 13.0001 0.5C19.9037 0.5 25.5002 6.09644 25.5002 13C25.5064 14.993 25.0308 16.958 24.1139 18.7275C23.2278 20.4368 21.9621 21.9205 20.4139 23.065C19.8298 23.4925 19.21 23.8689 18.5614 24.19L18.4614 24.24C16.7613 25.0721 14.8929 25.5032 13.0001 25.5ZM13.0001 19.25C11.127 19.2463 9.4097 20.2925 8.55387 21.9587C11.3556 23.3465 14.6446 23.3465 17.4464 21.9587V21.9525C16.5895 20.2881 14.8721 19.2443 13.0001 19.25ZM13.0001 16.75C15.7078 16.7535 18.2044 18.2126 19.5364 20.57L19.5551 20.5537L19.5726 20.5387L19.5514 20.5575L19.5389 20.5675C22.7001 17.8364 23.8305 13.4279 22.3734 9.51263C20.9164 5.59735 17.179 3.00039 13.0014 3.00039C8.82376 3.00039 5.08637 5.59735 3.62931 9.51263C2.17226 13.4279 3.30263 17.8364 6.46387 20.5675C7.7967 18.2113 10.2931 16.7533 13.0001 16.75ZM13.0001 15.5C10.2387 15.5 8.00012 13.2614 8.00012 10.5C8.00012 7.73858 10.2387 5.5 13.0001 5.5C15.7615 5.5 18.0001 7.73858 18.0001 10.5C18.0001 11.8261 17.4733 13.0979 16.5357 14.0355C15.598 14.9732 14.3262 15.5 13.0001 15.5ZM13.0001 8C11.6194 8 10.5001 9.11929 10.5001 10.5C10.5001 11.8807 11.6194 13 13.0001 13C14.3808 13 15.5001 11.8807 15.5001 10.5C15.5001 9.11929 14.3808 8 13.0001 8Z" fill="#5A4CB0"/>
</svg>
