<svg width="24" height="24" viewBox="0 0 24 24" fill="none" xmlns="http://www.w3.org/2000/svg">
<path d="M7.92756 7.85236C6.58614 8.99217 6.09457 11.0709 7.25284 12.7385C8.33673 14.2991 9.70207 15.6641 11.2623 16.7475C12.9299 17.9056 15.0086 17.4138 16.1483 16.0724L16.1609 16.0782C17.6167 16.7526 19.1629 17.2148 20.7499 17.4503V20.75L20.7485 20.75L20.745 20.75C10.7768 20.7641 3.23922 13.1389 3.24989 3.25449V3.25H6.54909L6.54931 3.25146C6.78487 4.83831 7.24688 6.38317 7.9213 7.83885L7.92756 7.85236ZM20.7485 23.25H21.9999C22.6902 23.25 23.2499 22.6903 23.2499 22V16.3721C23.2499 15.7527 22.7962 15.2266 22.1834 15.1357L21.1157 14.9772C19.7652 14.7768 18.4505 14.3837 17.2118 13.8098L16.2707 13.3739C15.7253 13.1213 15.0774 13.2925 14.7281 13.7816L14.3021 14.378C13.9287 14.9008 13.2158 15.0605 12.6882 14.694C11.3728 13.7806 10.22 12.628 9.30616 11.3124C8.93964 10.7847 9.09932 10.0717 9.62217 9.69833L10.2183 9.27258C10.7075 8.92326 10.8788 8.27526 10.6261 7.72988L10.1897 6.78791C9.6158 5.54925 9.22266 4.23468 9.02221 2.88436L8.86367 1.81645C8.77271 1.2037 8.24669 0.75 7.62722 0.75H1.99989C1.30953 0.75 0.749891 1.30964 0.749891 2V3.25179C0.737741 14.5098 9.38767 23.2661 20.7485 23.25Z" fill="#FFAD0D"/>
</svg>
