<svg width="24" height="25" viewBox="0 0 24 25" fill="none" xmlns="http://www.w3.org/2000/svg">
<g clip-path="url(#clip0)">
<path d="M21.1429 0.969727H2.85714C1.28171 0.969727 0 2.25144 0 3.82687V22.1126C0 23.688 1.28171 24.9697 2.85714 24.9697H21.1429C22.7183 24.9697 24 23.688 24 22.1126V3.82687C24 2.25144 22.7183 0.969727 21.1429 0.969727ZM18.8606 11.44C18.7295 11.4527 18.598 11.4594 18.4663 11.46C17.7554 11.4601 17.0556 11.2832 16.4302 10.9452C15.8048 10.6072 15.2734 10.1188 14.884 9.52401V16.1166C14.884 17.0803 14.5982 18.0223 14.0628 18.8236C13.5274 19.6249 12.7664 20.2495 11.8761 20.6183C10.9857 20.987 10.006 21.0835 9.06084 20.8955C8.11565 20.7075 7.24744 20.2435 6.566 19.562C5.88456 18.8806 5.42049 18.0124 5.23248 17.0672C5.04447 16.122 5.14097 15.1423 5.50976 14.2519C5.87855 13.3616 6.50308 12.6006 7.30437 12.0652C8.10566 11.5298 9.04773 11.244 10.0114 11.244C10.1131 11.244 10.2126 11.2532 10.3126 11.2594V13.6606C10.2126 13.6486 10.1143 13.6303 10.0114 13.6303C9.35187 13.6303 8.71933 13.8923 8.25296 14.3587C7.78658 14.8251 7.52457 15.4576 7.52457 16.1172C7.52457 16.7767 7.78658 17.4093 8.25296 17.8756C8.71933 18.342 9.35187 18.604 10.0114 18.604C11.3851 18.604 12.5983 17.5217 12.5983 16.148L12.6223 4.95144H14.9194C15.0244 5.94955 15.4768 6.87901 16.1977 7.5773C16.9185 8.27558 17.8619 8.69827 18.8629 8.77144V11.44" fill="white"/>
</g>
<defs>
<clipPath id="clip0">
<rect y="0.969727" width="24" height="24" rx="6" fill="white"/>
</clipPath>
</defs>
</svg>
