<svg width="24" height="25" viewBox="0 0 24 25" fill="none" xmlns="http://www.w3.org/2000/svg">
<path d="M15.6835 0.969727H8.31648C1.5937 0.969727 0 2.56343 0 9.28621V16.6532C0 23.376 1.5937 24.9697 8.31648 24.9697H15.6835C22.4063 24.9697 24 23.376 24 16.6532V9.28621C24 2.56343 22.3905 0.969727 15.6835 0.969727ZM19.3749 18.0902H17.6327C16.9727 18.0902 16.7695 17.5667 15.5823 16.3638C14.5511 15.364 14.0943 15.2313 13.8401 15.2313C13.4808 15.2313 13.3788 15.3325 13.3788 15.8253V17.3995C13.3788 17.8217 13.2461 18.0752 12.1286 18.0752C10.2807 18.0752 8.23025 16.9577 6.79253 14.8758C4.62436 11.8249 4.03111 9.5397 4.03111 9.06721C4.03111 8.81298 4.13237 8.57523 4.6206 8.57523H6.36654C6.80829 8.57523 6.97629 8.77849 7.14802 9.25097C8.01126 11.7431 9.44895 13.9263 10.0422 13.9263C10.2612 13.9263 10.3624 13.8251 10.3624 13.2663V10.6924C10.2957 9.5052 9.67094 9.4032 9.67094 8.98172C9.67094 8.77849 9.83893 8.57523 10.1082 8.57523H12.8538C13.2251 8.57523 13.3616 8.77849 13.3616 9.21571V12.6881C13.3616 13.0631 13.5296 13.1959 13.6308 13.1959C13.8498 13.1959 14.0373 13.0631 14.4431 12.6566C15.697 11.2504 16.5955 9.08224 16.5955 9.08224C16.7125 8.82798 16.9157 8.59026 17.3575 8.59026H19.1034C19.6269 8.59026 19.7439 8.85948 19.6269 9.23447C19.4079 10.2499 17.2712 13.2656 17.2712 13.2656C17.0875 13.5701 17.017 13.7028 17.2712 14.0426C17.4587 14.2968 18.0684 14.8241 18.4742 15.2965C19.2204 16.144 19.7941 16.855 19.9471 17.347C20.1189 17.8352 19.8654 18.0895 19.3726 18.0895L19.3749 18.0902Z" fill="white"/>
</svg>
