<svg xmlns="http://www.w3.org/2000/svg" version="1.1" xmlns:xlink="http://www.w3.org/1999/xlink" xmlns:svgjs="http://svgjs.com/svgjs" width="1000" height="1000"><rect width="1000" height="1000" rx="200" ry="200" fill="#ff9518"></rect><g transform="matrix(25,0,0,25,100,100)"><svg xmlns="http://www.w3.org/2000/svg" version="1.1" xmlns:xlink="http://www.w3.org/1999/xlink" xmlns:svgjs="http://svgjs.com/svgjs" width="32" height="32"><svg width="32" height="32" viewBox="0 0 32 32" fill="none" xmlns="http://www.w3.org/2000/svg">
<rect width="32" height="32" rx="4" fill="#FF9518"></rect>
<path fill-rule="evenodd" clip-rule="evenodd" d="M22.9489 6.00001L9.35575 6L3 6.00001L3 13.2667L3.89256 12.3612L3.89256 6.89498L9.35575 6.89498L9.35575 12.3612L3.89256 12.3612L3.89256 13.2667L9.35575 13.2667L9.35575 26L16.604 26L16.604 19.6279L29 19.6279L29 12.3612L22.9489 12.3612L22.9489 6.00001ZM15.7007 25.0941L15.7007 19.6279L10.2483 19.6279L10.2483 25.0941L15.7007 25.0941ZM22.9489 13.2667L22.9489 18.7329L28.4013 18.7329L28.4013 13.2667L22.9489 13.2667Z" fill="white"></path>
<path d="M3.89256 12.3612L3 13.2667L3.89256 13.2667L3.89256 12.3612Z" fill="white"></path>
</svg></svg></g></svg>